<svg height='100px' width='100px'  fill="#000000" xmlns="http://www.w3.org/2000/svg" xmlns:xlink="http://www.w3.org/1999/xlink" xml:space="preserve" version="1.1" style="shape-rendering:geometricPrecision;text-rendering:geometricPrecision;image-rendering:optimizeQuality;" viewBox="0 0 847 847" x="0px" y="0px" fill-rule="evenodd" clip-rule="evenodd"><defs><style type="text/css">
   
    .fil0 {fill:#000000}
   
  </style></defs><g><path class="fil0" d="M202 313l178 0 0 -70c-25,-15 -42,-42 -42,-73 0,-47 38,-85 85,-85 47,0 85,38 85,85 0,34 -20,63 -49,77l0 66 185 0c18,0 33,15 33,33l0 78 70 31 0 142 -70 43 0 90c0,17 -15,32 -33,32l-442 0c-17,0 -32,-15 -32,-32l0 -90 -71 -43 0 -142 71 -31 0 -78c0,-18 15,-33 32,-33zm67 248l59 0 0 148 -59 0 0 -148zm250 0l59 0 0 148 -59 0 0 -148zm-81 0l59 0 0 148 -59 0 0 -148zm-85 0l59 0 0 148 -59 0 0 -148zm-19 -177c28,0 51,23 51,52 0,28 -23,51 -51,51 -29,0 -51,-23 -51,-51 0,-29 22,-52 51,-52zm169 0c28,0 51,23 51,52 0,28 -23,51 -51,51 -29,0 -51,-23 -51,-51 0,-29 22,-52 51,-52z"></path></g></svg>