<svg height='100px' width='100px'  fill="#000000" xmlns="http://www.w3.org/2000/svg" xmlns:xlink="http://www.w3.org/1999/xlink" version="1.1" x="0px" y="0px" viewBox="0 0 100 100" style="enable-background:new 0 0 100 100;" xml:space="preserve"><g><path d="M13.5,74.7c0,0.4,0.2,0.7,0.6,0.9L46.9,92c2,1,4.3,1,6.3,0l32.8-16.4c0.3-0.2,0.6-0.5,0.6-0.9V64.6L54,80.8   c-1.3,0.6-2.6,0.9-4,0.9c-1.4,0-2.8-0.3-4-0.9L13.5,64.6V74.7z"></path><path d="M43.1,46.3L14.1,60.8c-0.3,0.2-0.6,0.5-0.6,0.9s0.2,0.7,0.6,0.9L46.9,79c2,1,4.3,1,6.3,0l32.8-16.4   c0.3-0.2,0.6-0.5,0.6-0.9s-0.2-0.7-0.6-0.9L56.9,46.3v-2.2V31.9c3.9-2.3,6.5-6.6,6.5-11.4c0-7.4-6-13.3-13.3-13.3   s-13.3,6-13.3,13.3c0,4.8,2.6,9.1,6.5,11.4v12.1V46.3z M54.9,32.9v19.2c0,0.6-1.8,1.7-4.9,1.7c-3,0-4.9-1.1-4.9-1.7V32.9   c1.5,0.6,3.1,0.9,4.9,0.9C51.7,33.9,53.4,33.5,54.9,32.9z M41.9,16c0-2.1,1.7-3.7,3.7-3.7s3.7,1.7,3.7,3.7s-1.7,3.7-3.7,3.7   S41.9,18,41.9,16z M50,68c8.4,0,15.5-3.3,15.5-7.2c0-0.7-0.3-1.5-0.8-2.3c0,0-0.1-0.1-0.1-0.1l-0.2-0.2c0,0,0,0,0,0L60,52.6   c-0.6-0.9-1.7-1.7-3.1-2.3v-2.2c2.1,0.8,3.8,1.9,4.7,3.2l4.4,5.5c0,0,0,0,0,0l0.3,0.3c0,0.1,0.1,0.1,0.1,0.2   c0.7,1.1,1.1,2.2,1.1,3.3C67.5,66,59.8,70,50,70c-9.8,0-17.5-4.1-17.5-9.2c0-1.1,0.4-2.2,1.1-3.3c0-0.1,0.1-0.1,0.1-0.2l4.7-5.9   c0,0,0,0,0,0c0.9-1.3,2.6-2.4,4.7-3.2v2.1c-1.4,0.6-2.5,1.3-3.1,2.2c0,0-0.1,0.1-0.1,0.1l-4.5,5.7c0,0,0,0.1-0.1,0.1   c-0.6,0.8-0.8,1.5-0.8,2.3C34.5,64.7,41.6,68,50,68z"></path></g></svg>