<svg height='100px' width='100px'  fill="#000000" xmlns="http://www.w3.org/2000/svg" xmlns:xlink="http://www.w3.org/1999/xlink" version="1.1" x="0px" y="0px" viewBox="0 0 70 70" style="enable-background:new 0 0 70 70;" xml:space="preserve"><rect x="26.3927002" y="27.1118774" width="16.3415527" height="15.7838745"></rect><path d="M21.5862427,25.1746216v19.6582642c0,1.585022,1.2914429,2.8691406,2.8764648,2.8691406h20.3626709  c1.585022,0,2.8764648-1.2841187,2.8764648-2.8691406V25.3140259c0-1.6583252-1.3501587-3.0085449-3.0158691-3.0085449H24.4627075  C22.8776855,22.305481,21.5862427,23.5895996,21.5862427,25.1746216z M24.9249878,26.3780518  c0-0.4109497,0.3302002-0.7337646,0.7337646-0.7337646h17.8091431c0.4035645,0,0.7337646,0.3228149,0.7337646,0.7337646v17.2514038  c0,0.4036255-0.3302002,0.7337646-0.7337646,0.7337646H25.6587524c-0.4035645,0-0.7337646-0.3301392-0.7337646-0.7337646V26.3780518  z"></path><path d="M31.4412842,49.1694336v1.7171021c-0.7338257,0.2861328-1.2548218,1.0053101-1.2548218,1.8417969  c0,1.0933838,0.8952637,1.9812622,1.9885864,1.9812622s1.9885864-0.8878784,1.9885864-1.9812622  c0-0.8364868-0.5209961-1.5556641-1.2548218-1.8417969v-1.7171021H31.4412842z"></path><path d="M42.7340698,49.1693115v3.7129517c-0.7337646,0.2935181-1.2474365,1.0053101-1.2474365,1.8417969  c0,1.100708,0.8878784,1.9885864,1.9812622,1.9885864c1.0933228,0,1.9885254-0.8878784,1.9885254-1.9885864  c0-0.8364868-0.5209961-1.5482788-1.2547607-1.8417969v-3.7129517H42.7340698z"></path><path d="M54.7244263,28.5205078c1.0933838,0,1.9885864-0.8952026,1.9885864-1.9885864s-0.8952026-1.9885864-1.9885864-1.9885864  c-0.8364868,0-1.555603,0.5209961-1.8417969,1.2547607h-3.7130127v1.4675903h3.7130127  C53.1688232,27.9994507,53.8879395,28.5205078,54.7244263,28.5205078z"></path><path d="M49.1694336,32.9160156h6.21521c0.2935181,0.7338257,1.0053101,1.2474365,1.8417969,1.2474365  c1.0933838,0,1.9885864-0.8878174,1.9885864-1.9812012c0-1.100708-0.8952026-1.9885864-1.9885864-1.9885864  c-0.8364868,0-1.555603,0.5209961-1.8417969,1.2547607h-6.21521V32.9160156z"></path><path d="M50.8793945,37.0912476h-1.7097778v1.4675903h1.7097778c0.2935181,0.7337646,1.005249,1.2547607,1.8417969,1.2547607  c1.0933228,0,1.9885864-0.8952026,1.9885864-1.9885864c0-1.0933228-0.8952637-1.9812012-1.9885864-1.9812012  C51.8846436,35.843811,51.1729126,36.3574829,50.8793945,37.0912476z"></path><path d="M49.1694336,44.2091675h4.2119751c0.2935181,0.7337646,1.0126343,1.2474365,1.8491211,1.2474365  c1.0933838,0,1.9812622-0.8878174,1.9812622-1.9812012s-0.8878784-1.9885864-1.9812622-1.9885864  c-0.8364868,0-1.555603,0.5209961-1.8491211,1.2547607h-4.2119751V44.2091675z"></path><path d="M17.2716675,30.1936646c-1.0933228,0-1.9812012,0.8878784-1.9812012,1.9885864  c0,1.0933838,0.8878784,1.9812012,1.9812012,1.9812012c0.8365479,0,1.5556641-0.5136108,1.8491821-1.2474365h0.9979248v-1.4675903  h-0.9979248C18.8346558,30.7146606,18.1155396,30.1936646,17.2716675,30.1936646z"></path><path d="M20.1187744,25.7980957h-3.5001831c-0.2935181-0.7337646-1.0126343-1.2547607-1.8491211-1.2547607  c-1.0933838,0-1.9885864,0.8952026-1.9885864,1.9885864s0.8952026,1.9885864,1.9885864,1.9885864  c0.8364868,0,1.555603-0.5210571,1.8491211-1.2548218h3.5001831V25.7980957z"></path><path d="M15.2757568,41.4868164c-1.0933228,0-1.9885864,0.8952026-1.9885864,1.9885864s0.8952637,1.9812012,1.9885864,1.9812012  c0.8365479,0,1.5483398-0.5136719,1.8418579-1.2474365h3.0011597v-1.4675903h-3.0011597  C16.8240967,42.0078125,16.1123047,41.4868164,15.2757568,41.4868164z"></path><path d="M25.7908936,49.1696167v4.2119141c-0.7337646,0.2935181-1.2474365,1.0126343-1.2474365,1.8491821  c0,1.0933228,0.8878784,1.9885864,1.9812622,1.9885864c1.100708,0,1.9885864-0.8952637,1.9885864-1.9885864  c0-0.8365479-0.5209961-1.5556641-1.2548218-1.8491821v-4.2119141H25.7908936z"></path><path d="M10.7849731,37.8250122c0,1.0933838,0.8878784,1.9885864,1.9812622,1.9885864  c0.8364868,0,1.555603-0.5209961,1.8491211-1.2547607h5.503418v-1.4675903h-5.503418  c-0.2935181-0.7337646-1.0126343-1.2474365-1.8491211-1.2474365C11.6728516,35.843811,10.7849731,36.7316895,10.7849731,37.8250122z  "></path><path d="M37.0914307,49.1696167v6.2225342c-0.7337646,0.2861938-1.2547607,1.0053101-1.2547607,1.8417969  c0,1.0933838,0.8878784,1.9812622,1.9885864,1.9812622c1.0933228,0,1.9812012-0.8878784,1.9812012-1.9812622  c0-0.8364868-0.5136108-1.555603-1.2474365-1.8417969v-6.2225342H37.0914307z"></path><path d="M44.2016602,20.8377075v-4.2192993c0.7337646-0.293457,1.2547607-1.005249,1.2547607-1.8417969  c0-1.100708-0.8952026-1.9885864-1.9885254-1.9885864c-1.0933838,0-1.9812622,0.8878784-1.9812622,1.9885864  c0,0.8365479,0.5136719,1.5483398,1.2474365,1.8417969v4.2192993H44.2016602z"></path><path d="M32.1750488,10.78479c-1.0933228,0-1.9885864,0.8952026-1.9885864,1.9885254  c0,0.8365479,0.5209961,1.5556641,1.2548218,1.8491821v6.21521h1.4675293v-6.21521  c0.7338257-0.2935181,1.2548218-1.0126343,1.2548218-1.8491821C34.1636353,11.6799927,33.2683716,10.78479,32.1750488,10.78479z"></path><path d="M38.559021,20.8378296v-1.7097778c0.7338257-0.293457,1.2474365-1.0126343,1.2474365-1.8491821  c0-1.0933228-0.8878784-1.9885254-1.9812012-1.9885254c-1.100708,0-1.9885864,0.8952026-1.9885864,1.9885254  c0,0.8365479,0.5209961,1.5557251,1.2547607,1.8491821v1.7097778H38.559021z"></path><path d="M27.2584839,20.8377686v-3.7130127c0.7338257-0.2861938,1.2548218-1.005249,1.2548218-1.8491211  c0-1.0933838-0.8878784-1.9812012-1.9885864-1.9812012c-1.0933838,0-1.9812622,0.8878174-1.9812622,1.9812012  c0,0.8364868,0.5136719,1.5556641,1.2474365,1.8491211v3.7130127H27.2584839z"></path></svg>