<svg height='100px' width='100px'  fill="#000000" xmlns="http://www.w3.org/2000/svg" xmlns:xlink="http://www.w3.org/1999/xlink" version="1.1" x="0px" y="0px" viewBox="0 0 60 60" style="enable-background:new 0 0 60 60;" xml:space="preserve"><path d="M50.4724121,41.4505005l-4.7399902-4.7399902c0,0,0,0-0.0100098,0l-4.2299805-4.2300415  c-0.3900146-0.3999634-1.0200195-0.3999634-1.4100342,0l-2.6099854,2.6000366l-1.3900146-1.3900146l3.6900024-3.6900024  c0.5800171-0.5800171,0.9000244-1.3499756,0.9000244-2.1699829c0-0.8300171-0.3200073-1.6000366-0.9000244-2.1799927  L34.3424072,20.22052c-1.2000122-1.2000122-3.1500244-1.2000122-4.3499756,0l-3.6900024,3.6899414l-1.3900146-1.3899536  l2.5999756-2.6100464c0.3900146-0.3899536,0.3900146-1.0199585,0-1.4099731l-4.2299805-4.2299805c0,0,0,0,0-0.0100098  l-8.9799805-8.9700317c-0.3699951-0.3800049-1.0400391-0.3800049-1.4100342,0l-7.1900024,7.1900024  c-0.3900146,0.3900146-0.3900146,1.0200195,0,1.4100342l4.2300415,4.2399902l8.9799805,8.9799805  c0.1799927,0.1799927,0.4400024,0.2900391,0.7000122,0.2900391c0.2699585,0,0.5199585-0.1100464,0.7099609-0.2900391  l3.1700439-3.1699829l1.3899536,1.3900146l-5.6599731,5.6599731c-1.2200317-0.6599731-2.8599854-0.4899902-3.8599854,0.5200195  l-1.9500122,1.9500122c-0.1900024,0.1799927-0.289978,0.4400024-0.289978,0.6999512  c0,0.2700195,0.0999756,0.5200195,0.289978,0.710022l3.3200073,3.3200073l-3.1099854,6.8599854  c-0.1800537,0.3800049-0.1000366,0.8200073,0.1999512,1.1199951c0.1900024,0.1900024,0.4500122,0.2900391,0.710022,0.2900391  c0.1400146,0,0.2799683-0.0300293,0.4099731-0.0900269l6.8600464-3.1099854l3.3200073,3.3200073  c0.1899414,0.1900024,0.4499512,0.289978,0.7099609,0.289978c0.25,0,0.5100098-0.0999756,0.7000122-0.289978l1.9500122-1.9500122  c1.0499878-1.0499878,1.2299805-2.6400146,0.5299683-3.8699951l5.6500244-5.6500244l1.3900146,1.3900146l-3.1700439,3.1699829  c-0.1799927,0.1900024-0.289978,0.4400024-0.289978,0.7000122c0,0.2700195,0.1099854,0.5200195,0.289978,0.710022  L46.102417,54.2904663c0.1900024,0.2000122,0.4500122,0.3000488,0.7000122,0.3000488  c0.2599487,0,0.5099487-0.1000366,0.7099609-0.3000488l7.1900024-7.1900024  c0.1900024-0.1900024,0.2999878-0.4400024,0.2999878-0.7099609c0-0.2600098-0.1099854-0.5200195-0.2999878-0.7000122  L50.4724121,41.4505005z M7.8223877,13.1904907l5.7800293-5.7800293l2.8200073,2.8200073L10.642395,16.010498L7.8223877,13.1904907z   M12.0524292,17.4204712l5.7799683-5.7799683l3.3300171,3.3300171l-5.7800293,5.7799683L12.0524292,17.4204712z   M19.6124268,24.9804688l-2.8200073-2.8200073l5.7799683-5.7699585l2.8200073,2.8200073L19.6124268,24.9804688z   M35.0123901,40.3704834l5.7700195-5.7700195l2.8200073,2.8200073l-5.7800293,5.7700195L35.0123901,40.3704834z   M39.2424316,44.6104736l5.7799683-5.7799683l3.3300171,3.3299561l-5.7800293,5.7800293L39.2424316,44.6104736z   M46.8024292,52.1704712l-2.8200073-2.8200073l5.7799683-5.7799683l2.8200073,2.8200073L46.8024292,52.1704712z"></path><path d="M15.4576416,54.9945679c0.5527344,0,1-0.4472656,1-1s-0.4472656-1-1-1  c-4.6650391,0-8.4599609-3.7949219-8.4599609-8.4599609c0-0.5527344-0.4472656-1-1-1s-1,0.4472656-1,1  C4.9976807,50.3021851,9.6900635,54.9945679,15.4576416,54.9945679z"></path><path d="M15.4576416,51.3568726c0.5527344,0,1-0.4472656,1-1s-0.4472656-1-1-1  c-2.6582031,0-4.8212891-2.1630859-4.8212891-4.8222656c0-0.5527344-0.4472656-1-1-1s-1,0.4472656-1,1  C8.6363525,48.2963257,11.6959229,51.3568726,15.4576416,51.3568726z"></path></svg>