<?xml version="1.0" encoding="UTF-8" standalone="no"?>
<!-- Generator: Adobe Illustrator 25.2.2, SVG Export Plug-In . SVG Version: 6.00 Build 0)  -->

<svg
   xmlns:dc="http://purl.org/dc/elements/1.1/"
   xmlns:cc="http://creativecommons.org/ns#"
   xmlns:rdf="http://www.w3.org/1999/02/22-rdf-syntax-ns#"
   xmlns:svg="http://www.w3.org/2000/svg"
   xmlns="http://www.w3.org/2000/svg"
   xmlns:sodipodi="http://sodipodi.sourceforge.net/DTD/sodipodi-0.dtd"
   xmlns:inkscape="http://www.inkscape.org/namespaces/inkscape"
   version="1.1"
   id="Calque_1"
   x="0px"
   y="0px"
   viewBox="0 0 380.07797 113.9678"
   xml:space="preserve"
   sodipodi:docname="phins.svg"
   width="380.07797"
   height="113.9678"
   inkscape:version="0.92.3 (2405546, 2018-03-11)"><metadata
   id="metadata21"><rdf:RDF><cc:Work
       rdf:about=""><dc:format>image/svg+xml</dc:format><dc:type
         rdf:resource="http://purl.org/dc/dcmitype/StillImage" /></cc:Work></rdf:RDF></metadata><defs
   id="defs19" /><sodipodi:namedview
   pagecolor="#ffffff"
   bordercolor="#666666"
   borderopacity="1"
   objecttolerance="10"
   gridtolerance="10"
   guidetolerance="10"
   inkscape:pageopacity="0"
   inkscape:pageshadow="2"
   inkscape:window-width="1920"
   inkscape:window-height="1007"
   id="namedview17"
   showgrid="false"
   inkscape:zoom="0.59"
   inkscape:cx="198.29152"
   inkscape:cy="-248.29322"
   inkscape:window-x="1920"
   inkscape:window-y="0"
   inkscape:window-maximized="1"
   inkscape:current-layer="Calque_1" />
<style
   type="text/css"
   id="style2">
	.st0{fill:#00B6ED;}
</style>
<g
   id="g14"
   transform="matrix(1.5876273,0,0,1.6304406,-16.828849,-144.78313)">
	<path
   d="m 38,97.6 c 15.6,0 24.5,7.8 24.5,21.4 0,14.4 -9,22.6 -24.5,22.6 H 28.5 V 158 H 10.6 V 97.6 Z m -9.5,30.3 h 8.6 c 5.3,0 8.4,-2.9 8.4,-8.4 0,-5.3 -3.1,-8.2 -8.4,-8.2 h -8.6 z"
   id="path4"
   inkscape:connector-curvature="0" />
	<path
   d="M 118.3,128.3 V 158 H 101 v -24.7 c 0,-4.7 -2.6,-7.6 -6.7,-7.6 -4.7,0.1 -7.7,3.8 -7.7,9.1 V 158 H 69.2 V 94.1 h 17.4 v 24.3 c 3.3,-5.2 8.4,-7.9 14.9,-7.9 10,0 16.8,6.9 16.8,17.8 z"
   id="path6"
   inkscape:connector-curvature="0" />
	<path
   d="m 144.4,97.8 c 0,5.3 -3.7,9 -9,9 -5.3,0 -9,-3.7 -9,-9 0,-5.3 3.7,-9 9,-9 5.3,0 9,3.7 9,9 z M 126.7,158 v -46.8 h 17.4 V 158 Z"
   id="path8"
   inkscape:connector-curvature="0" />
	<path
   d="M 202.9,128.3 V 158 h -17.4 v -24.7 c 0,-4.7 -2.7,-7.6 -6.7,-7.6 -4.7,0.1 -7.7,3.8 -7.7,9.1 V 158 h -17.4 v -46.8 h 17.4 v 7.2 c 3.3,-5.2 8.4,-7.9 14.9,-7.9 10,0 16.9,6.9 16.9,17.8 z"
   id="path10"
   inkscape:connector-curvature="0" />
	<path
   d="m 250,116.1 -5.8,10.9 c -6.4,-3.3 -11.6,-4.9 -15.3,-4.9 -2.2,0 -3.5,0.8 -3.5,2.2 0,5.3 24.5,2.9 24.5,18.9 0,9.6 -8.4,15.5 -20.6,15.5 -8.3,0 -15.9,-2.2 -22,-6.6 l 5.3,-10.9 c 5.9,3.8 11.8,5.8 17,5.8 2.3,0 3.9,-0.7 3.9,-2.2 0,-5.3 -23.9,-2.8 -23.9,-18.8 0,-9.8 8.2,-15.7 20,-15.7 6.9,0.1 14,2 20.4,5.8 z"
   id="path12"
   inkscape:connector-curvature="0" />
</g>
</svg>