<?xml version="1.0" encoding="UTF-8" standalone="no"?>
<svg
  xmlns:sketch="http://www.bohemiancoding.com/sketch/ns"
  xmlns:dc="http://purl.org/dc/elements/1.1/"
  xmlns:cc="http://creativecommons.org/ns#"
  xmlns:rdf="http://www.w3.org/1999/02/22-rdf-syntax-ns#"
  xmlns="http://www.w3.org/2000/svg"
  xmlns:sodipodi="http://sodipodi.sourceforge.net/DTD/sodipodi-0.dtd"
  xmlns:inkscape="http://www.inkscape.org/namespaces/inkscape"
  height="100"
  width="100"
  viewBox="0 0 100 100"
  version="1.1"
  x="0px"
  y="0px"
  id="svg20"
  sodipodi:docname="virtual_rc.svg"
  style="fill:#000000"
  inkscape:version="0.92.3 (2405546, 2018-03-11)">
  <metadata
     id="metadata26">
    <rdf:RDF>
      <cc:Work
         rdf:about="">
        <dc:format>image/svg+xml</dc:format>
        <dc:type
           rdf:resource="http://purl.org/dc/dcmitype/StillImage" />
      </cc:Work>
    </rdf:RDF>
  </metadata>
  <defs
     id="defs24" />
  <sodipodi:namedview
     pagecolor="#ffffff"
     bordercolor="#666666"
     borderopacity="1"
     objecttolerance="10"
     gridtolerance="10"
     guidetolerance="10"
     inkscape:pageopacity="0"
     inkscape:pageshadow="2"
     inkscape:window-width="1920"
     inkscape:window-height="1007"
     id="namedview22"
     showgrid="false"
     inkscape:zoom="2.36"
     inkscape:cx="-36.220918"
     inkscape:cy="-7.653"
     inkscape:window-x="1920"
     inkscape:window-y="0"
     inkscape:window-maximized="1"
     inkscape:current-layer="svg20" />
  <title
     id="title2">56 - Xbox One Controller (Solid)</title>
  <desc
     id="desc4">Created with Sketch.</desc>
  <g
     sketch:type="MSPage"
     id="g18"
     style="fill:none;fill-rule:evenodd;stroke:none;stroke-width:1"
     transform="matrix(1.6615858,0,0,1.6704608,0.01312035,13.55391)">
    <g
       sketch:type="MSLayerGroup"
       transform="translate(-1)"
       id="g16"
       style="fill:#000000">
      <path
         d="M 59.72,23.153 C 57.494,15.031 53.516,7.413 53.079,6.591 53.031,6.48 52.925,6.065 52.848,5.762 52.443,4.179 52.177,3.27 51.401,2.987 L 43.726,0.196 C 42.764,-0.156 41.654,-0.016 40.828,0.535 39.945,1.1 38.952,1.652 38.634,1.761 h -3.918 c 0.005,0.71 0.009,1.192 0.013,1.359 0.038,0.222 0.057,0.446 0.057,0.671 0,1.068 -0.416,2.072 -1.172,2.828 C 32.859,7.374 31.855,7.79 30.787,7.79 30.559,7.79 30.326,7.772 30.09,7.731 28.503,7.461 27.21,6.219 26.876,4.639 26.762,4.103 26.756,3.566 26.857,3.041 26.861,2.871 26.864,2.418 26.868,1.761 H 23.817 C 23.453,1.654 22.256,1.042 21.378,0.546 20.526,-0.022 19.425,-0.153 18.464,0.196 L 10.788,2.987 C 10.013,3.27 9.746,4.179 9.341,5.762 9.264,6.065 9.158,6.48 9.12,6.57 8.673,7.413 4.694,15.033 2.47,23.153 c -2.644,9.648 -1.737,15.961 2.694,18.765 1.017,0.644 2.442,0.527 3.37,-0.269 l 9.128,-7.828 c 1.109,-0.951 2.525,-1.474 3.986,-1.474 h 18.893 c 1.461,0 2.877,0.523 3.987,1.474 l 9.127,7.828 c 0.525,0.45 1.193,0.698 1.882,0.698 0.53,0 1.046,-0.149 1.488,-0.429 4.431,-2.804 5.337,-9.117 2.695,-18.765 z M 10.786,12.347 c 0,-2.757 2.243,-5 5,-5 2.756,0 5,2.243 5,5 0,2.757 -2.244,5 -5,5 -2.757,0 -5,-2.243 -5,-5 z M 31,23.285 C 31,24.231 30.231,25 29.286,25 H 27 v 2.285 C 27,28.231 26.231,29 25.286,29 H 22.714 C 21.769,29 21,28.231 21,27.285 V 25 H 18.714 C 17.769,25 17,24.231 17,23.285 v -2.57 C 17,19.77 17.769,19 18.714,19 H 21 V 16.715 C 21,15.77 21.769,15 22.714,15 h 2.572 C 26.231,15 27,15.77 27,16.715 V 19 h 2.286 C 30.231,19 31,19.77 31,20.715 Z M 45.786,6.347 c 1.104,0 2,0.895 2,2 0,1.104 -0.896,2 -2,2 -1.105,0 -2,-0.896 -2,-2 0,-1.105 0.895,-2 2,-2 z m -4,4 c 1.104,0 2,0.895 2,2 0,1.104 -0.896,2 -2,2 -1.105,0 -2,-0.896 -2,-2 0,-1.105 0.895,-2 2,-2 z m -3,17 c -2.757,0 -5,-2.243 -5,-5 0,-2.757 2.243,-5 5,-5 2.756,0 5,2.243 5,5 0,2.757 -2.244,5 -5,5 z m 7,-9 c -1.105,0 -2,-0.896 -2,-2 0,-1.105 0.895,-2 2,-2 1.104,0 2,0.895 2,2 0,1.104 -0.896,2 -2,2 z m 4,-4 c -1.105,0 -2,-0.896 -2,-2 0,-1.105 0.895,-2 2,-2 1.104,0 2,0.895 2,2 0,1.104 -0.896,2 -2,2 z"
         sketch:type="MSShapeGroup"
         id="path6"
         inkscape:connector-curvature="0" />
      <path
         d="m 15.786,9.347 c -1.655,0 -3,1.345 -3,3 0,1.654 1.345,3 3,3 1.654,0 3,-1.346 3,-3 0,-1.655 -1.346,-3 -3,-3"
         sketch:type="MSShapeGroup"
         id="path8"
         inkscape:connector-curvature="0" />
      <path
         d="m 25,17 h -2 v 4 h -4 v 2 h 4 v 4 h 2 v -4 h 4 v -2 h -4 v -4"
         sketch:type="MSShapeGroup"
         id="path10"
         inkscape:connector-curvature="0" />
      <path
         d="m 28.831,3.376 c -0.06,0.273 -0.06,0.56 0.001,0.849 0.164,0.771 0.819,1.403 1.594,1.534 C 31.103,5.877 31.739,5.665 32.2,5.205 32.578,4.827 32.786,4.325 32.786,3.791 32.786,3.664 32.773,3.54 32.75,3.42 32.734,3.338 32.727,3.296 32.716,1.761 h -3.848 c -0.01,1.486 -0.019,1.531 -0.037,1.615"
         sketch:type="MSShapeGroup"
         id="path12"
         inkscape:connector-curvature="0" />
      <path
         d="m 38.786,19.347 c -1.655,0 -3,1.346 -3,3 0,1.654 1.345,3 3,3 1.654,0 3,-1.346 3,-3 0,-1.654 -1.346,-3 -3,-3"
         sketch:type="MSShapeGroup"
         id="path14"
         inkscape:connector-curvature="0" />
    </g>
  </g>
</svg>
