<svg height='100px' width='100px'  fill="#000000" xmlns:dc="http://purl.org/dc/elements/1.1/" xmlns:cc="http://creativecommons.org/ns#" xmlns:rdf="http://www.w3.org/1999/02/22-rdf-syntax-ns#" xmlns:svg="http://www.w3.org/2000/svg" xmlns="http://www.w3.org/2000/svg" xmlns:sodipodi="http://sodipodi.sourceforge.net/DTD/sodipodi-0.dtd" xmlns:inkscape="http://www.inkscape.org/namespaces/inkscape" version="1.1" x="0px" y="0px" viewBox="0 0 100 100"><g transform="translate(0,-952.36218)"><path style="color:#000000;enable-background:accumulate;" d="m 12,966.3641 c -2.216,0 -4,1.78399 -4,3.99989 l 0,22.99941 20.71875,0 8.46875,-17.87454 a 2.0002,2.0001482 0 0 1 1.53125,-1.12497 2.0002,2.0001482 0 0 1 2.1875,1.37496 L 51.1875,1008.3318 62.125,980.61373 a 2.0002,2.0001482 0 0 1 3.6875,-0.0937 l 6.46875,13.81214 19.71875,0.0312 0,-23.99938 c 0,-2.2159 -1.784,-3.99989 -4,-3.99989 l -76,0 z m 26.625,15.46835 -6.8125,14.37462 A 2.0002,2.0001482 0 0 1 30,997.36329 l -22,0 0,22.99941 c 0,2.2159 1.784,3.9999 4,3.9999 l 76,0 c 2.216,0 4,-1.784 4,-3.9999 l 0,-21.99943 -21,-0.0312 A 2.0002,2.0001482 0 0 1 69.1875,997.1758 L 64.15625,986.42608 52.875,1015.0816 a 2.0002,2.0001482 0 0 1 -3.78125,-0.125 L 38.625,981.83245 z m 4.375,44.53005 0,7.9998 14,0 0,-7.9998 -14,0 z m -6.09375,9.9998 c -1.043011,0.049 -1.955141,1.0468 -1.90625,2.0937 0.04889,1.0467 1.050759,1.9555 2.09375,1.9062 l 25.875,0 c 1.052257,0.015 2.03125,-0.9438 2.03125,-2 0,-1.056 -0.978993,-2.0148 -2.03125,-1.9999 l -26.0625,0 z" fill="#000000" stroke="none" marker="none" visibility="visible" display="inline" overflow="visible"></path></g></svg>